<?xml version="1.0" encoding="UTF-8"?><svg id="b" xmlns="http://www.w3.org/2000/svg" viewBox="0 0 156 60.66"><defs><style>.d{fill:#214196;}</style></defs><g id="c"><g><polygon class="d" points="47.79 50.15 18.13 50.15 39.27 10.51 68.39 10.51 65.37 16.34 42.82 16.34 27.71 44.32 44.35 44.32 50.47 33.24 41.76 33.24 45.04 27.42 59.6 27.42 47.79 50.15"/><path class="d" d="M71.95,27.42h13.55l5.91-11.08h-13.7l-5.76,11.08Zm-11.82,22.73h-6.45L74.3,10.51h26.37l-11.83,22.73h-19.93l-8.79,16.9Z"/><polygon class="d" points="92.27 50.15 107.7 21.5 107.7 50.15 117.34 50.15 137.88 10.51 131.8 10.51 113.53 43.6 113.53 10.51 106.62 10.51 86 50.15 92.27 50.15"/><path class="d" d="M35,4.81h113.02l-26.89,51.03H7.99L35,4.81Zm-2.9-4.81L0,60.66H124.03L156,0H32.11Z"/></g></g></svg>