<svg xmlns="http://www.w3.org/2000/svg" viewBox="0 0 523.44 47.35"><defs><style>.a{fill:red;}</style></defs><polygon class="a" points="301.9 4.42 301.9 0.41 262.96 0.41 262.96 19.95 259.55 19.95 259.55 23.88 262.96 23.88 262.96 47.34 276.27 47.34 276.27 23.91 298.86 23.91 298.86 19.89 276.27 19.89 276.27 4.42 301.9 4.42"/><polygon class="a" points="51.66 0.41 35.03 32.15 17.12 0.41 16.85 0.41 3.37 0.41 0 0.41 0 5.12 6.02 5.12 29.59 47.02 35.79 47.02 60.17 0.41 51.66 0.41"/><path class="a" d="M316,287.71H303.38v4.71h4.23l-23.76,42.17h9L300,322.06h21.07l6.8,12.53h13.59Zm-13.51,30.08L310.79,303l8,14.84Z" transform="translate(-213.46 -287.25)"/><path class="a" d="M413.06,287.66l-37.57,42.12h35.58v4.81h-53v-2.18l36.1-40.36h-33.5v-4.39Z" transform="translate(-213.46 -287.25)"/><path class="a" d="M434.91,287.66h13.27v46.93H434.91Z" transform="translate(-213.46 -287.25)"/><path class="a" d="M590.16,301a21.7,21.7,0,0,0-7.14-7.23,35.84,35.84,0,0,0-10.95-4.47,59.08,59.08,0,0,0-14-1.54H533.18v4.81h5.27v37.27h-5.27v4.8h27.06a46.7,46.7,0,0,0,13.83-1.87,31.31,31.31,0,0,0,10.17-5.11,22.25,22.25,0,0,0,6.3-7.59,20.56,20.56,0,0,0,2.16-9.29A18.86,18.86,0,0,0,590.16,301Zm-13.79,18a17,17,0,0,1-10.16,9.61,21.56,21.56,0,0,1-7.37,1.25h-7.08V292.44h7.08a20.46,20.46,0,0,1,7.65,1.4,18.3,18.3,0,0,1,6,3.86,17.61,17.61,0,0,1,3.94,5.83,18.72,18.72,0,0,1,1.42,7.31A20.51,20.51,0,0,1,576.37,318.93Z" transform="translate(-213.46 -287.25)"/><path class="a" d="M640.86,287.71H628.22v4.71h4.23l-23.77,42.17h9l7.11-12.53H645.9l6.79,12.53h13.59Zm-13.51,30.08L635.62,303l8,14.84Z" transform="translate(-213.46 -287.25)"/><path class="a" d="M717.6,311.93a27.18,27.18,0,0,0,5-1.94,16.69,16.69,0,0,0,3.92-2.68,11.87,11.87,0,0,0,2.52-3.32,8.42,8.42,0,0,0,.9-3.82,10.44,10.44,0,0,0-1.32-5.17,11.81,11.81,0,0,0-3.94-4.1,20.63,20.63,0,0,0-6.56-2.69,39.12,39.12,0,0,0-9.21-1H682.33v4.85h6.24V309h-3.75v4h3.75v21.59h13.32v-21.4h2.35l18.19,21.4H736.9ZM715.26,304a8.12,8.12,0,0,1-2.38,2.71,11.41,11.41,0,0,1-3.6,1.69,16.26,16.26,0,0,1-4.52.59h-2.87V291.86h5.39a9.83,9.83,0,0,1,3.56.63,8,8,0,0,1,2.8,1.76,8.19,8.19,0,0,1,1.82,2.7,8.85,8.85,0,0,1,.66,3.46A7.6,7.6,0,0,1,715.26,304Z" transform="translate(-213.46 -287.25)"/></svg>